<?xml version="1.0" encoding="utf-8"?>
<!-- Generator: Adobe Illustrator 16.0.0, SVG Export Plug-In . SVG Version: 6.00 Build 0)  -->
<!DOCTYPE svg PUBLIC "-//W3C//DTD SVG 1.1//EN" "http://www.w3.org/Graphics/SVG/1.1/DTD/svg11.dtd">
<svg version="1.1" id="Layer_1" xmlns="http://www.w3.org/2000/svg" xmlns:xlink="http://www.w3.org/1999/xlink" x="0px" y="0px"
	 width="53px" height="49px" viewBox="0 0 53 49" enable-background="new 0 0 53 49" xml:space="preserve">
<title>logo-mobile-modo-noct</title>
<desc>Created with Sketch.</desc>
<g id="GIFOS_1_">
	<g id="_x31_6-UI-Kit-Modo-Nocturno" transform="translate(-347.000000, -2414.000000)">
		<g id="logo-mobile-modo-noct" transform="translate(347.000000, 2414.000000)">
			<g id="Group-5">
				<polygon id="Fill-1" fill="#5ED7C6" points="0,0 0,48.791 48.791,48.791 48.791,38.336 45.307,38.336 45.307,45.307 
					3.485,45.307 3.485,3.485 34.852,3.485 34.852,13.94 45.307,13.94 45.307,20.911 48.791,20.911 48.791,10.455 38.336,0 				"/>
				<g id="Group-4" transform="translate(7.000000, 16.000000)">
					<g id="Clip-3">
					</g>
					<defs>
						<filter id="Adobe_OpacityMaskFilter" filterUnits="userSpaceOnUse" x="1.734" y="8.469" width="43.906" height="11.688">
							<feColorMatrix  type="matrix" values="1 0 0 0 0  0 1 0 0 0  0 0 1 0 0  0 0 0 1 0"/>
						</filter>
					</defs>
					<mask maskUnits="userSpaceOnUse" x="1.734" y="8.469" width="43.906" height="11.688" id="mask-2">
						<g filter="url(#Adobe_OpacityMaskFilter)">
							<polygon id="path-1" fill="#FFFFFF" points="0.837,0.943 48.529,0.943 48.529,20.46 0.837,20.46 							"/>
						</g>
					</mask>
					<g mask="url(#mask-2)" enable-background="new    ">
						<path fill="#FFFFFF" d="M11.016,18.563c-0.422,0.505-1.019,0.897-1.789,1.176c-0.771,0.278-1.625,0.418-2.563,0.418
							c-0.984,0-1.848-0.215-2.59-0.645s-1.315-1.054-1.719-1.871c-0.404-0.817-0.611-1.778-0.621-2.883v-0.773
							c0-1.136,0.191-2.118,0.574-2.949s0.935-1.466,1.656-1.906c0.721-0.44,1.566-0.66,2.535-0.66c1.349,0,2.403,0.321,3.164,0.965
							c0.76,0.644,1.211,1.579,1.352,2.809H8.734c-0.104-0.651-0.335-1.128-0.691-1.43c-0.357-0.302-0.848-0.453-1.473-0.453
							c-0.797,0-1.404,0.3-1.82,0.898c-0.417,0.599-0.628,1.489-0.633,2.672v0.727c0,1.192,0.227,2.094,0.68,2.703
							s1.117,0.914,1.992,0.914c0.88,0,1.508-0.188,1.883-0.563V15.75H6.539v-1.727h4.477V18.563z"/>
						<path fill="#FFFFFF" d="M15.406,20h-2.344V8.625h2.344V20z"/>
						<path fill="#FFFFFF" d="M24.422,15.352h-4.5V20h-2.344V8.625h7.406v1.898h-5.063v2.938h4.5V15.352z"/>
						<path fill="#FFFFFF" d="M35.688,14.57c0,1.12-0.198,2.102-0.594,2.945c-0.396,0.844-0.963,1.495-1.699,1.953
							c-0.737,0.458-1.582,0.688-2.535,0.688c-0.943,0-1.784-0.227-2.523-0.68c-0.74-0.453-1.313-1.101-1.719-1.941
							S26.005,15.727,26,14.633V14.07c0-1.12,0.201-2.105,0.605-2.957c0.403-0.852,0.974-1.505,1.711-1.961
							c0.736-0.456,1.579-0.684,2.527-0.684c0.947,0,1.79,0.228,2.527,0.684c0.736,0.456,1.307,1.109,1.711,1.961
							c0.403,0.852,0.605,1.835,0.605,2.949V14.57z M33.313,14.055c0-1.192-0.214-2.099-0.641-2.719
							c-0.428-0.62-1.037-0.93-1.828-0.93c-0.787,0-1.394,0.306-1.82,0.918c-0.428,0.612-0.644,1.509-0.648,2.691v0.555
							c0,1.161,0.213,2.063,0.641,2.703c0.427,0.641,1.041,0.961,1.844,0.961c0.786,0,1.391-0.309,1.813-0.926
							s0.635-1.517,0.641-2.699V14.055z"/>
						<path fill="#FFFFFF" d="M43.289,17.016c0-0.442-0.156-0.782-0.469-1.02s-0.875-0.487-1.688-0.75s-1.456-0.522-1.93-0.777
							c-1.292-0.698-1.938-1.638-1.938-2.82c0-0.614,0.173-1.163,0.52-1.645c0.346-0.481,0.844-0.858,1.492-1.129
							s1.376-0.406,2.184-0.406c0.813,0,1.536,0.147,2.172,0.441c0.635,0.294,1.129,0.71,1.48,1.246s0.527,1.146,0.527,1.828h-2.344
							c0-0.521-0.164-0.926-0.492-1.215s-0.789-0.434-1.383-0.434c-0.573,0-1.019,0.121-1.336,0.363
							c-0.318,0.242-0.477,0.562-0.477,0.957c0,0.37,0.186,0.68,0.559,0.93c0.372,0.25,0.92,0.484,1.645,0.703
							c1.333,0.401,2.305,0.898,2.914,1.492s0.914,1.333,0.914,2.219c0,0.984-0.373,1.757-1.117,2.316
							c-0.745,0.56-1.748,0.84-3.008,0.84c-0.875,0-1.672-0.16-2.391-0.48s-1.268-0.759-1.645-1.316
							c-0.378-0.558-0.566-1.203-0.566-1.938h2.352c0,1.255,0.75,1.883,2.25,1.883c0.557,0,0.992-0.113,1.305-0.34
							S43.289,17.422,43.289,17.016z"/>
					</g>
				</g>
			</g>
		</g>
	</g>
</g>
</svg>
